<?xml version="1.0" encoding="UTF-8"?>
<svg width="26px" height="25px" viewBox="0 0 26 25" version="1.1" xmlns="http://www.w3.org/2000/svg" xmlns:xlink="http://www.w3.org/1999/xlink">
    <!-- Generator: Sketch 54.1 (76490) - https://sketchapp.com -->
    <title>icon_print</title>
    <desc>Created with Sketch.</desc>
    <defs>
        <polygon id="path-1" points="26 25 26 11.1654847 26 0 0 0 0 25"></polygon>
    </defs>
    <g id="icon_print" stroke="none" stroke-width="1" fill="none" fill-rule="evenodd">
        <g>
            <g id="Group-5" transform="translate(10.000000, 18.000000)" fill="#00405C" opacity="0.749433877">
                <path d="M0.557142857,0 C0.235714286,0 0,0.4 0,1 C0,1.6 0.257142857,2 0.557142857,2 L5.44285714,2 C5.76428571,2 6,1.6 6,1 C6,0.4 5.76428571,0 5.44285714,0 L0.557142857,0 Z" id="Fill-1"></path>
                <path d="M0.557142857,3 C0.235714286,3 0,3.4 0,4 C0,4.6 0.257142857,5 0.557142857,5 L5.44285714,5 C5.76428571,5 6,4.6 6,4 C6,3.4 5.76428571,3 5.44285714,3 L0.557142857,3 Z" id="Fill-3"></path>
            </g>
            <mask id="mask-2" fill="white">
                <use xlink:href="#path-1"></use>
            </mask>
            <g id="Clip-8"></g>
            <path d="M24.18,17.8366338 C24.18,18.329389 23.7755556,18.7644288 23.2555556,18.7644288 L20.5111111,18.7644288 L20.5111111,17.6623279 C20.5111111,16.1544798 19.2688889,14.9070755 17.7666667,14.9070755 L8.23333333,14.9070755 C6.73111111,14.9070755 5.48888889,16.1544798 5.48888889,17.6623279 L5.48888889,18.7644288 L2.74444444,18.7644288 C2.25333333,18.7644288 1.82,18.3586817 1.82,17.8366338 L1.82,9.3678581 C1.82,8.87481293 2.22444444,8.43977308 2.74444444,8.43977308 L23.2555556,8.43977308 C23.7466667,8.43977308 24.18,8.84581028 24.18,9.3678581 L24.18,17.8366338 Z M18.6619333,22.2447476 C18.6619333,22.7377928 18.2577778,23.1728326 17.7377778,23.1728326 L8.20444444,23.1728326 C7.71333333,23.1728326 7.28,22.7670855 7.28,22.2447476 L7.28,17.6336152 C7.28,17.1405701 7.68444444,16.7055302 8.20444444,16.7055302 L17.7377778,16.7055302 C18.2286,16.7055302 18.6619333,17.1115674 18.6619333,17.6336152 L18.6619333,22.2447476 Z M7.33777778,2.75525238 C7.33777778,2.26220722 7.74222222,1.82716737 8.26222222,1.82716737 L17.7952667,1.82716737 C18.2866667,1.82716737 18.72,2.23320456 18.72,2.75525238 L18.72,6.61260571 L7.33777778,6.61260571 L7.33777778,2.75525238 Z M20.5111111,6.61260571 L20.5111111,2.75525238 C20.5111111,1.24711424 19.2688889,0 17.7666667,0 L8.23333333,0 C6.73111111,0 5.48888889,1.24711424 5.48888889,2.75525238 L5.48888889,6.61260571 L2.74444444,6.61260571 C1.24222222,6.61260571 0,7.85971995 0,9.3678581 L0,17.8366338 C0,19.344482 1.24222222,20.5918862 2.74444444,20.5918862 L5.48888889,20.5918862 L5.48888889,22.2447476 C5.48888889,23.7528858 6.73111111,25 8.23333333,25 L17.7666667,25 C19.2688889,25 20.5111111,23.7528858 20.5111111,22.2447476 L20.5111111,20.5918862 L23.2555556,20.5918862 C24.7577778,20.5918862 26,19.344482 26,17.8366338 L26,9.3678581 C26,7.85971995 24.7577778,6.61260571 23.2555556,6.61260571 L20.5111111,6.61260571 Z" id="Fill-7" fill="#00405C" mask="url(#mask-2)"></path>
        </g>
    </g>
</svg>