<?xml version="1.0" encoding="UTF-8"?>
<svg width="27px" height="18px" viewBox="0 0 27 18" version="1.1" xmlns="http://www.w3.org/2000/svg" xmlns:xlink="http://www.w3.org/1999/xlink">
    <!-- Generator: Sketch 54.1 (76490) - https://sketchapp.com -->
    <title>icon_email blue</title>
    <desc>Created with Sketch.</desc>
    <g id="icon_email-blue" stroke="none" stroke-width="1" fill="none" fill-rule="evenodd" opacity="0.8">
        <path d="M25.5,15.45 L25.29,15.24 L25.26,15.21 L18.12,9 L25.26,2.82 L25.29,2.79 L25.5,2.58 L25.5,15.45 Z M2.55,16.5 L2.76,16.29 L10.05,9.99 L13.02,12.57 C13.17,12.69 13.35,12.75 13.5,12.75 C13.65,12.75 13.86,12.69 13.98,12.57 L16.95,9.99 L24.24,16.29 L24.45,16.5 L2.55,16.5 Z M1.77,15.18 L1.74,15.21 L1.5,15.45 L1.5,2.55 L1.71,2.76 L1.74,2.79 L8.88,9 L1.77,15.18 Z M24.45,1.5 L24.24,1.71 L13.5,11.01 L2.76,1.71 L2.55,1.5 L24.45,1.5 Z M24.75,0 L2.25,0 C1.02,0 0,1.02 0,2.25 L0,15.75 C0,16.98 1.02,18 2.25,18 L24.75,18 C25.98,18 27,16.98 27,15.75 L27,2.25 C27,1.02 25.98,0 24.75,0 L24.75,0 Z" id="icon_email" fill="#00405C"></path>
    </g>
</svg>