<?xml version="1.0" encoding="UTF-8"?>
<svg width="18px" height="26px" viewBox="0 0 18 26" version="1.1" xmlns="http://www.w3.org/2000/svg" xmlns:xlink="http://www.w3.org/1999/xlink">
    <!-- Generator: Sketch 59.1 (86144) - https://sketch.com -->
    <title>icon_bookmark blue</title>
    <desc>Created with Sketch.</desc>
    <g id="icon_bookmark-blue" stroke="none" stroke-width="1" fill="none" fill-rule="evenodd" opacity="0.8">
        <path d="M9,16.9684211 C8.79237288,16.9684211 8.58474576,17.0315789 8.43644068,17.1894737 L2,23 L2,4.84210526 C2,3.26315789 3.18644068,2 4.66949153,2 L13.3305085,2 C14.8135593,2 16,3.26315789 16,4.84210526 L16,22.9684211 L9.56355932,17.1894737 C9.41525424,17.0631579 9.20762712,16.9684211 9,16.9684211 L9,16.9684211 Z M15.9966273,25.710396 C16.2091062,25.9034653 16.4822934,26 16.7554806,26 C16.9376054,26 17.1197302,25.9678218 17.301855,25.8712871 C17.7268128,25.6460396 18,25.1955446 18,24.7128713 L18,4.82673267 C18,2.15594059 15.9662732,0 13.4468803,0 L4.55311973,0 C2.03372681,0 0,2.15594059 0,4.82673267 L0,24.6806931 C0,25.1633663 0.273187184,25.6138614 0.698145025,25.8391089 C1.12310287,26.0643564 1.60876897,26 1.97301855,25.6782178 C1.97301855,25.6782178 2.00337268,25.6782178 2.00337268,25.6460396 L8.98482293,19.4356436 L15.9966273,25.710396 Z" id="icon_bookmark" fill="#00405C"></path>
    </g>
</svg>