<?xml version="1.0" encoding="UTF-8"?>
<svg width="20px" height="20px" viewBox="0 0 20 20" version="1.1" xmlns="http://www.w3.org/2000/svg" xmlns:xlink="http://www.w3.org/1999/xlink">
    <!-- Generator: Sketch 53.1 (72631) - https://sketchapp.com -->
    <title>Group 2</title>
    <desc>Created with Sketch.</desc>
    <g id="Page-1" stroke="none" stroke-width="1" fill="none" fill-rule="evenodd">
        <g id="Icon-Page" transform="translate(-226.000000, -717.000000)">
            <g id="Group-2" transform="translate(225.625283, 717.000000)">
                <circle id="Oval-Copy" stroke="#00405C" stroke-width="3" cx="14.5618875" cy="5.02173913" r="3.52173913"></circle>
                <path d="M0.369565217,11.4708549 L13.6304348,11.4708549 C14.3868248,11.4708549 15,12.0840301 15,12.8404201 L15,12.8404201 C15,13.5968101 14.3868248,14.2099853 13.6304348,14.2099853 L0.369565217,14.2099853 C-0.386824766,14.2099853 -1,13.5968101 -1,12.8404201 L-1,12.8404201 C-1,12.0840301 -0.386824766,11.4708549 0.369565217,11.4708549 Z" id="Rectangle-Copy-2" fill="#00405C" transform="translate(7.000000, 12.840420) rotate(-45.000000) translate(-7.000000, -12.840420) "></path>
                <path d="M3.25633744,16.3248847 L5.90851135,16.3248847 C6.18465373,16.3248847 6.40851135,16.5487423 6.40851135,16.8248847 L6.40851135,18.5640151 C6.40851135,18.8401575 6.18465373,19.0640151 5.90851135,19.0640151 L3.25633744,19.0640151 C2.98019507,19.0640151 2.75633744,18.8401575 2.75633744,18.5640151 L2.75633744,16.8248847 C2.75633744,16.5487423 2.98019507,16.3248847 3.25633744,16.3248847 Z" id="Rectangle-Copy-3" fill="#00405C" transform="translate(4.582424, 17.694450) rotate(-315.000000) translate(-4.582424, -17.694450) "></path>
                <path d="M5.99546787,13.5857543 L8.64764179,13.5857543 C8.92378416,13.5857543 9.14764179,13.8096119 9.14764179,14.0857543 L9.14764179,15.8248847 C9.14764179,16.1010271 8.92378416,16.3248847 8.64764179,16.3248847 L5.99546787,16.3248847 C5.7193255,16.3248847 5.49546787,16.1010271 5.49546787,15.8248847 L5.49546787,14.0857543 C5.49546787,13.8096119 5.7193255,13.5857543 5.99546787,13.5857543 Z" id="Rectangle-Copy-4" fill="#00405C" transform="translate(7.321555, 14.955319) rotate(-315.000000) translate(-7.321555, -14.955319) "></path>
            </g>
        </g>
    </g>
</svg>