<?xml version="1.0" encoding="utf-8"?>
<!-- Generator: Adobe Illustrator 23.0.1, SVG Export Plug-In . SVG Version: 6.00 Build 0)  -->
<svg version="1.1" id="Layer_1" xmlns="http://www.w3.org/2000/svg" xmlns:xlink="http://www.w3.org/1999/xlink" x="0px" y="0px"
	 viewBox="0 0 80 24" style="enable-background:new 0 0 80 24;" xml:space="preserve">
<style type="text/css">
	.st0{fill:#00877C;}
</style>
<g>
	<polygon class="st0" points="43.9,17.5 47.2,9.7 47.2,17.4 49.5,17.4 49.5,6.6 46.1,6.6 43.9,12.1 41.7,6.6 38.2,6.6 38.2,17.4 
		40.5,17.4 40.5,9.7 	"/>
	<path class="st0" d="M58.3,9.8c0-2.1-1.6-3.4-3.6-3.4c-1.9,0-4.1,1.1-4.1,3.4c0,1.9,2.1,2.9,3.3,3.2c0.7,0.2,2.3,0.4,2.3,1.6
		c0,1.1-1.2,1.4-2,1.4c-1.1,0-1.8-0.8-1.7-2h-2.2c-0.1,2.7,1.8,3.7,3.9,3.7c2.5,0.1,4.4-1,4.4-3.4c0-2.4-2.1-2.8-3.8-3.3
		c-0.6-0.2-1.8-0.4-1.8-1.5c0-0.9,0.8-1.4,1.6-1.4c1,0,1.6,0.5,1.7,1.6L58.3,9.8"/>
	<path class="st0" d="M27.4,6.6c0-3-2.4-5.4-5.4-5.4c-3,0-5.4,2.4-5.4,5.4H27.4z"/>
	<path class="st0" d="M27.4,17.4c0,3-2.4,5.4-5.4,5.4c-3,0-5.4-2.4-5.4-5.4H27.4z"/>
	<path class="st0" d="M22.6,12c2.7,0.3,4.9,2.6,4.9,5.4c3,0,5.4-2.4,5.4-5.4s-2.4-5.4-5.4-5.4C27.4,9.4,25.3,11.7,22.6,12L22.6,12z"
		/>
	<path class="st0" d="M21.5,12c-2.7,0.3-4.9,2.6-4.9,5.4c-3,0-5.4-2.4-5.4-5.4s2.4-5.4,5.4-5.4C16.6,9.4,18.8,11.7,21.5,12L21.5,12z
		"/>
	<path class="st0" d="M63,17.4c2.9,0,5.8-1.6,5.8-5.4c0-3.7-2.9-5.4-5.8-5.4h-3.4v10.8H63z M61.9,8.6h1c2.6,0,3.6,1.7,3.6,3.4
		c0,1.7-0.9,3.4-3.6,3.4h-1V8.6z"/>
</g>
</svg>
