<?xml version="1.0" encoding="UTF-8"?>
<svg width="40px" height="40px" viewBox="0 0 40 40" version="1.1" xmlns="http://www.w3.org/2000/svg" xmlns:xlink="http://www.w3.org/1999/xlink">
    <!-- Generator: Sketch 55.1 (78136) - https://sketchapp.com -->
    <title>Pinterest 2 Copy</title>
    <desc>Created with Sketch.</desc>
    <g id="Page-1" stroke="none" stroke-width="1" fill="none" fill-rule="evenodd">
        <g id="Pinterest-2-Copy">
            <g id="Pinterest">
                <g id="Group-4">
                    <g id="Group-3">
                        <path d="M20,2.85714286 C30.2567784,2.85714286 38.5714286,11.1717931 38.5714286,21.4285714 C38.5714286,31.6853498 30.2567784,40 20,40 C9.74322163,40 1.42857143,31.6853498 1.42857143,21.4285714 C1.42857143,11.1717931 9.74322163,2.85714286 20,2.85714286" id="Fill-1" fill="#FFFFFF"></path>
                        <path d="M0,19.9835391 C0,28.4539918 5.25300412,35.6908642 12.6727572,38.6019753 C12.4921811,37.0230453 12.3445267,34.5888066 12.7384362,32.861893 C13.0995885,31.2994239 15.069465,22.9277366 15.069465,22.9277366 C15.069465,22.9277366 14.4785185,21.7270782 14.4785185,19.9670782 C14.4785185,17.1874897 16.0872428,15.1152263 18.0898765,15.1152263 C19.7972016,15.1152263 20.6177778,16.3980247 20.6177778,17.9277366 C20.6177778,19.6381893 19.5344856,22.2039506 18.96,24.5888066 C18.4839506,26.57893 19.9613169,28.2072428 21.9145679,28.2072428 C25.4604115,28.2072428 28.1853498,24.457284 28.1853498,19.0625514 C28.1853498,14.2763786 24.7545679,10.9374486 19.8462551,10.9374486 C14.1665844,10.9374486 10.8342387,15.1973663 10.8342387,19.6052675 C10.8342387,21.3158848 11.4908642,23.1578601 12.3116049,24.1613169 C12.4757202,24.3585185 12.4921811,24.5395885 12.442963,24.7369547 C12.2953086,25.3619753 11.9506173,26.7270782 11.8849383,27.0065844 C11.8027984,27.3683951 11.5893004,27.4506996 11.2118519,27.2697942 C8.71670782,26.1020576 7.15720165,22.4671605 7.15720165,19.5231276 C7.15720165,13.2237037 11.7206584,7.43423868 20.3387654,7.43423868 C27.2497119,7.43423868 32.6339095,12.3683951 32.6339095,18.9802469 C32.6339095,25.8716049 28.3002469,31.4144856 22.2921811,31.4144856 C20.273251,31.4144856 18.3688889,30.3619753 17.7287243,29.1119342 C17.7287243,29.1119342 16.7274074,32.9277366 16.4811523,33.8651852 C16.0380247,35.6085597 14.8232099,37.7795885 14.0024691,39.1119342 C15.8739095,39.687572 17.8436214,40 19.9119342,40 C30.926749,40 39.8569711,31.0526749 39.8569711,20.0164609 C39.8897119,8.9473251 30.9596708,0 19.944856,0 C8.93004115,0 0,8.9473251 0,19.9835391 Z" id="Fill-1" fill="#E60019"></path>
                    </g>
                </g>
            </g>
        </g>
    </g>
</svg>