<?xml version="1.0" encoding="UTF-8"?>
<svg width="40px" height="40px" viewBox="0 0 40 40" version="1.1" xmlns="http://www.w3.org/2000/svg" xmlns:xlink="http://www.w3.org/1999/xlink">
    <!-- Generator: Sketch 55.1 (78136) - https://sketchapp.com -->
    <title>Twitter Copy</title>
    <desc>Created with Sketch.</desc>
    <g id="Page-1" stroke="none" stroke-width="1" fill="none" fill-rule="evenodd">
        <g id="Twitter-Copy">
            <rect id="Rectangle" fill="#1DA1F2" x="0" y="0" width="40" height="40" rx="20"></rect>
            <path d="M33.2962963,12.4268325 C32.4035638,12.8384618 31.442379,13.1168292 30.4341334,13.2412063 C31.4637704,12.601553 32.2538242,11.5872878 32.6260339,10.3790537 C31.6619973,10.9713254 30.596708,11.4022031 29.4586882,11.6331889 C28.5516948,10.6278079 27.2553786,10 25.8207324,10 C23.0698045,10 20.8379735,12.3172626 20.8379735,15.1749729 C20.8379735,15.5806791 20.8807563,15.9745395 20.9663218,16.3535932 C16.8235299,16.137414 13.1513482,14.0792704 10.6913426,10.9446733 C10.2620898,11.7116649 10.016802,12.601553 10.016802,13.5491875 C10.016802,15.3437704 10.8967,16.928097 12.2343721,17.8564825 C11.4186487,17.8313111 10.6485599,17.5958829 9.97544568,17.2109063 L9.97544568,17.2745757 C9.97544568,19.782846 11.6938842,21.8750452 13.9756284,22.3488623 C13.5577837,22.4702781 13.1171218,22.5309858 12.6621995,22.5309858 C12.3413289,22.5309858 12.0275893,22.4998919 11.723832,22.4391837 C12.3584421,24.4943661 14.1980984,25.9913325 16.3800162,26.0313111 C14.6744121,27.4201876 12.5238685,28.2478874 10.1893589,28.2478874 C9.78720152,28.2478874 9.38932233,28.2241966 9,28.176815 C11.2061614,29.6426869 13.8273147,30.5 16.6409903,30.5 C25.8107496,30.5 30.8234562,22.6153848 30.8234562,15.7761287 C30.8234562,15.5510653 30.819178,15.326002 30.8106212,15.105381 C31.784641,14.3754062 32.630312,13.4647885 33.2962963,12.4268325" id="twitter" fill="#FFFFFF" fill-rule="nonzero"></path>
        </g>
    </g>
</svg>